<svg xmlns="http://www.w3.org/2000/svg" xmlns:xlink="http://www.w3.org/1999/xlink" width="24" height="24" viewBox="0 0 24 24">
  <defs>
    <clipPath id="clip-path">
      <circle id="Ellipse_18" data-name="Ellipse 18" cx="12" cy="12" r="12" fill="#25853a"/>
    </clipPath>
  </defs>
  <g id="Mask_Group_2" data-name="Mask Group 2" clip-path="url(#clip-path)">
    <path id="question-circle" d="M24.387,12.387a12,12,0,1,1-12-12A12,12,0,0,1,24.387,12.387ZM12.709,4.355A6.267,6.267,0,0,0,7.07,7.44a.581.581,0,0,0,.131.787L8.88,9.5a.58.58,0,0,0,.806-.1c.864-1.1,1.457-1.732,2.773-1.732.988,0,2.211.636,2.211,1.595,0,.725-.6,1.1-1.574,1.644-1.138.638-2.644,1.432-2.644,3.419v.194a.581.581,0,0,0,.581.581h2.71a.581.581,0,0,0,.581-.581v-.064c0-1.377,4.025-1.435,4.025-5.161C18.348,6.484,15.436,4.355,12.709,4.355Zm-.322,12a2.226,2.226,0,1,0,2.226,2.226A2.228,2.228,0,0,0,12.387,16.355Z" transform="translate(-0.387 -0.387)" fill="#25853a"/>
  </g>
</svg>
